<svg xmlns="http://www.w3.org/2000/svg" viewBox="0 0 130.16 148.127">
  <path d="M40.954 136.367a14532.105 14532.105 0 0 0-29.979-17.34c-5.362-3.086-10.029-5.876-10.37-6.2-.494-.467-.619-7.88-.604-35.865C.011 57.559.105 41.6.21 41.496c.104-.105 2.57 1.222 5.478 2.948 4.177 2.48 17.818 10.353 30.027 17.333l1.34.766v14.51l-1.584-1.036c-.87-.57-3.01-1.833-4.752-2.807-1.743-.975-6.46-3.686-10.48-6.027-4.022-2.34-7.477-4.157-7.678-4.036-.201.12-.366 9.604-.366 21.075 0 19.254.066 20.914.853 21.604.991.867 34.668 20.21 35.602 20.449.505.129.62-5.296.594-27.992-.018-16.473.152-28.15.41-28.15.692 0 11.466 6.326 11.878 6.974.48.756.5 71.024.019 71.004-.201-.008-9.47-5.293-20.596-11.744zm27.417-23.924.125-35.684 5.85-3.369c18.172-10.466 29.621-16.987 30.245-17.226.599-.23.709.781.709 6.529 0 7.594.157 7.213-3.9 9.47-9.063 5.043-19.847 11.422-20.352 12.037-.76.927-.877 40.334-.122 41.503.544.845-.186 1.2 11.943-5.822 4.29-2.484 11.2-6.454 15.355-8.822 4.156-2.368 7.938-4.593 8.406-4.945.79-.596.851-2.613.868-28.973.017-26.177.082-28.387.856-29.04.922-.777 11.137-6.729 11.55-6.729.14 0 .256 15.986.256 35.525 0 27.83-.132 35.634-.61 36.025-.334.274-4.996 3.017-10.358 6.095-5.362 3.079-14.026 8.067-19.255 11.086-5.228 3.02-12.247 7.071-15.598 9.005a3928.47 3928.47 0 0 0-10.82 6.267c-2.6 1.513-4.85 2.752-5 2.752-.15 0-.217-16.058-.148-35.684zm-37.775-10.685-5.728-3.423V84.173l1.584.933c.872.513 3.614 2.115 6.094 3.56l4.509 2.629v6.967c0 3.832-.165 6.957-.366 6.944-.2-.013-2.943-1.564-6.093-3.448zm62.517-3.55v-7.023l5.616-3.214c3.089-1.768 5.837-3.215 6.107-3.215.312 0 .441 2.496.355 6.873l-.135 6.872-5.791 3.364c-3.185 1.85-5.872 3.365-5.972 3.365-.099 0-.18-3.16-.18-7.022zm-31.937-29.1c-1.872-1.1-10.753-6.233-19.734-11.405a10555.02 10555.02 0 0 1-25.348-14.64c-4.96-2.88-9.84-5.686-10.846-6.235-2.149-1.174-2.272-1.648-.595-2.286.678-.258 3.365-1.712 5.971-3.232 2.606-1.52 9.674-5.61 15.707-9.088 6.032-3.479 11.4-6.625 11.929-6.992.529-.368 1.325-.668 1.768-.668.87 0 11.825 6.13 12 6.715.059.194-5.186 3.424-11.654 7.177-6.469 3.754-11.71 7.044-11.65 7.312.062.268 4.649 3.081 10.193 6.251 5.544 3.17 13.384 7.712 17.42 10.094 4.038 2.382 7.676 4.46 8.084 4.617.432.165 3.277-1.18 6.796-3.216 3.33-1.925 9.673-5.596 14.097-8.158 4.423-2.562 9.688-5.595 11.699-6.74a531.181 531.181 0 0 0 4.369-2.507c.529-.314-.798-1.31-5.118-3.843-6.225-3.65-24.156-14.043-34.592-20.051-8.466-4.874-8.531-4.916-8.531-5.455 0-.259.724-.773 1.61-1.143.885-.37 3.425-1.798 5.644-3.175 4.13-2.561 4.88-2.833 5.688-2.059.489.468 2.424 1.595 28.492 16.6 29.82 17.162 32.375 18.708 31.64 19.134-.377.22-4.634 2.66-9.46 5.423a18534.56 18534.56 0 0 0-30.074 17.297c-11.715 6.75-21.48 12.272-21.7 12.272-.22 0-1.932-.9-3.805-2zm-2.551-30.09c-3.016-1.776-5.484-3.38-5.484-3.563 0-.185 1.7-1.262 3.778-2.396 2.078-1.133 4.79-2.614 6.028-3.29l2.25-1.23 5.696 3.335c3.133 1.834 5.792 3.49 5.91 3.68.277.449-11.001 6.801-11.963 6.739-.402-.026-3.199-1.5-6.215-3.276z"/>
</svg>
